<?xml version="1.0" encoding="utf-8"?>
<!-- Generator: Adobe Illustrator 24.1.3, SVG Export Plug-In . SVG Version: 6.00 Build 0)  -->
<svg version="1.1" id="Camada_1" xmlns="http://www.w3.org/2000/svg" xmlns:xlink="http://www.w3.org/1999/xlink" x="0px" y="0px"
	 viewBox="0 0 561 501" style="enable-background:new 0 0 561 501;" xml:space="preserve">
<style type="text/css">
	.st0{fill:none;}
	.st1{fill:#333333;}
	.st2{fill:#FCFCFC;}
	.st3{fill:#FED45E;}
	.st4{fill:#FCFAF4;}
	.st5{fill:#FDFDFD;}
</style>
<g>
	<g id="blackBaloon">
		<path class="st0" d="M218.83,288.21c18.46,0.23,12.82-2.93,22.57,12.93c3.59,5.85,7.05,11.78,10.93,18.28
			c1.16-2.35,1.89-3.82,2.61-5.28c4.33-7.14,8.7-14.25,12.97-21.42c1.2-2.02,2.47-3.85,4.74-4.74c20.79,0.05,41.58,0.14,62.36,0.13
			c2.84,0,5.61-0.68,7.56-3.1c4.49-2.84,5.25-7.29,5.25-12.09c-0.01-30.98,0-61.96,0-92.94c0-12.88-4.5-17.4-17.39-17.4
			c-52.14-0.01-104.27-0.01-156.41,0.01c-2.16,0-4.34,0.06-6.47,0.38c-4.14,0.63-7.15,2.65-7.76,7.18c-2.72,2.5-2.92,5.77-2.91,9.16
			c0.02,31.3-0.01,62.61,0.02,93.91c0.01,10.15,4.81,14.91,14.97,14.94C187.52,288.2,203.18,288.01,218.83,288.21z"/>
		<path class="st0" d="M385.8,278.25c0-15.32,0.03-30.64-0.01-45.97c-0.03-12.01-5.1-17.08-16.96-17.1
			c-2.83-0.01-5.69,0.23-8.49-0.06c-3.48-0.36-4.5,0.79-4.46,4.35c0.19,17.15,0.09,34.31,0.09,51.46c0,17.34-8.27,25.54-25.78,25.55
			c-16.99,0.01-33.98,0.09-50.96-0.08c-3.1-0.03-4.77,1.02-6.26,3.62c-5.28,9.24-10.74,18.37-16.21,27.49
			c-3.08,5.14-6.01,5.11-9.13-0.08c-5.56-9.27-11.09-18.55-16.51-27.89c-1.2-2.07-2.46-3.17-5.04-3.12
			c-8.66,0.16-17.32,0.14-25.98,0.02c-2.58-0.04-3.52,0.76-3.45,3.41c0.15,6.66,0.04,13.32,0.05,19.98
			c0.03,12.28,4.7,17,16.84,16.96c18.99-0.07,37.97-0.08,56.96-0.36c3.65-0.05,5.69,0.87,7.2,4.34c3.18,7.31,6.82,14.41,10.27,21.59
			c0.79,1.65,1.49,3.36,3.68,3.66c2.56,0.36,2.87-1.82,3.77-3.27c4.6-7.51,9.3-14.96,13.64-22.62c1.57-2.77,3.42-3.4,6.37-3.39
			c19.82,0.12,39.64,0.08,59.46,0.05c8.32-0.01,10.29-1.88,10.87-10.09c0.09-1.33,0.04-2.66,0.04-4
			C385.8,307.89,385.8,293.07,385.8,278.25z"/>
		<path class="st1" d="M557.02,175.92c-4.15-15.17-12.41-27.85-23.46-38.81c-36.43-36.14-75.88-68.39-120.73-93.7
			C374.04,21.52,332.88,6.72,288.5,1.37c-2.83-0.34-5.92,0.75-8.5-1.28c-13,0-25.99,0-38.99,0c-6.08,2.23-12.57,1.88-18.84,2.99
			c-37.3,6.55-72.94,17.82-105.12,38.23c-34,21.57-53.27,52.97-60.04,92.41c-3.16,18.43-4.43,37-4.61,55.65
			c-0.2,21.47-7.49,40.97-15.92,60.23c-8.26,18.85-18.29,36.88-26.02,55.98c-3.8,9.4-7.02,18.99-8.98,28.97
			c-0.23,1.16,0.3,2.79-1.39,3.42c0,7.33,0,14.66,0,21.99c2.05,2,1.7,4.84,2.48,7.27c4.52,14.17,13.47,25.06,24.94,34.13
			c5.89,4.65,12.06,8.9,18.71,12.37c31.28,16.31,61.31,34.75,91.62,52.76c20.59,12.23,41.58,23.75,65.08,29.72
			c6.63,1.68,13.33,2.89,20.12,3.62c1.04,0.11,2.43-0.47,2.98,1.08c2.67,0,5.33,0,8,0c3.97-2.07,8.34-0.89,12.5-1.43
			c27.86-3.6,52.84-14.8,75.75-30.24c61.58-41.52,119.73-87.3,170.22-142.11c23.54-25.56,44.63-52.96,57.99-85.44
			C559.2,220.48,563.25,198.69,557.02,175.92z M156.9,273.22c-0.03-31.3,0-62.61-0.02-93.91c0-3.39,0.19-6.66,2.91-9.16
			c0.61-4.53,3.62-6.55,7.76-7.18c2.13-0.33,4.31-0.38,6.47-0.38c52.14-0.02,104.27-0.02,156.41-0.01c12.89,0,17.39,4.52,17.39,17.4
			c0,30.98,0,61.96,0,92.94c0,4.8-0.76,9.25-5.25,12.09c-1.95,2.42-4.72,3.1-7.56,3.1c-20.79,0.01-41.58-0.07-62.36-0.13
			c-2.27,0.89-3.54,2.72-4.74,4.74c-4.27,7.17-8.64,14.29-12.97,21.42c-0.72,1.47-1.45,2.93-2.61,5.28
			c-3.88-6.5-7.33-12.43-10.93-18.28c-9.75-15.87-4.11-12.7-22.57-12.93c-15.65-0.19-31.31-0.01-46.96-0.05
			C161.71,288.13,156.91,283.38,156.9,273.22z M385.76,326.71c-0.58,8.21-2.56,10.07-10.87,10.09c-19.82,0.03-39.64,0.07-59.46-0.05
			c-2.95-0.02-4.8,0.61-6.37,3.39c-4.33,7.66-9.04,15.11-13.64,22.62c-0.89,1.45-1.2,3.63-3.77,3.27c-2.19-0.31-2.89-2.01-3.68-3.66
			c-3.45-7.19-7.1-14.29-10.27-21.59c-1.51-3.46-3.55-4.39-7.2-4.34c-18.98,0.28-37.97,0.29-56.96,0.36
			c-12.14,0.05-16.81-4.68-16.84-16.96c-0.01-6.66,0.1-13.33-0.05-19.98c-0.06-2.65,0.88-3.45,3.45-3.41
			c8.66,0.12,17.32,0.15,25.98-0.02c2.58-0.05,3.84,1.04,5.04,3.12c5.42,9.35,10.95,18.63,16.51,27.89
			c3.11,5.19,6.05,5.22,9.13,0.08c5.47-9.12,10.93-18.25,16.21-27.49c1.49-2.61,3.15-3.65,6.26-3.62
			c16.99,0.17,33.98,0.09,50.96,0.08c17.51-0.01,25.78-8.21,25.78-25.55c0-17.15,0.11-34.31-0.09-51.46
			c-0.04-3.56,0.98-4.71,4.46-4.35c2.8,0.29,5.66,0.05,8.49,0.06c11.86,0.03,16.93,5.1,16.96,17.1c0.04,15.32,0.01,30.64,0.01,45.97
			c0,14.82,0,29.64,0,44.47C385.8,324.05,385.85,325.38,385.76,326.71z"/>
	</g>
	<path id="whiteMessage" class="st2" d="M385.8,278.25c0,14.82,0,29.64,0,44.47c0,1.33,0.05,2.67-0.04,4
		c-0.58,8.21-2.56,10.07-10.87,10.09c-19.82,0.03-39.64,0.07-59.46-0.05c-2.95-0.02-4.8,0.61-6.37,3.39
		c-4.33,7.66-9.04,15.11-13.64,22.62c-0.89,1.45-1.2,3.63-3.77,3.27c-2.19-0.31-2.89-2.01-3.68-3.66
		c-3.45-7.19-7.1-14.29-10.27-21.59c-1.51-3.46-3.55-4.39-7.2-4.34c-18.98,0.28-37.97,0.29-56.96,0.36
		c-12.14,0.05-16.81-4.68-16.84-16.96c-0.01-6.66,0.1-13.33-0.05-19.98c-0.06-2.65,0.87-3.45,3.45-3.41
		c8.66,0.12,17.32,0.15,25.98-0.02c2.58-0.05,3.84,1.04,5.04,3.12c5.42,9.35,10.95,18.63,16.51,27.89c3.11,5.19,6.04,5.22,9.13,0.08
		c5.47-9.12,10.93-18.25,16.21-27.49c1.49-2.61,3.15-3.65,6.26-3.62c16.99,0.17,33.98,0.09,50.96,0.08
		c17.51-0.01,25.78-8.21,25.78-25.55c0-17.15,0.11-34.31-0.09-51.46c-0.04-3.56,0.98-4.71,4.46-4.35c2.8,0.29,5.66,0.05,8.49,0.06
		c11.86,0.03,16.93,5.1,16.96,17.1C385.83,247.6,385.8,262.93,385.8,278.25z"/>
	<g id="yellowMessage">
		<path class="st3" d="M347.81,179.98c0-12.88-4.5-17.4-17.39-17.4c-52.14-0.01-104.27-0.01-156.41,0.01
			c-2.16,0-4.34,0.06-6.47,0.38c-4.14,0.63-7.15,2.65-7.76,7.18c0.04,32.45,0.07,64.9,0.11,97.35c0.02,12.83,4.57,17.38,17.53,17.3
			c18.64-0.11,37.27-0.22,55.9-0.59c3.93-0.08,6.03,1.18,7.59,4.77c3.11,7.17,6.65,14.14,10.03,21.19c0.86,1.79,1.52,3.79,3.99,3.96
			c4.33-7.13,8.7-14.25,12.97-21.42c1.2-2.02,2.47-3.85,4.74-4.74c0.64-2.55,2.39-3.17,4.85-3.16c21.69,0.11,43.38,0.14,65.07,0.19
			c4.49-2.84,5.25-7.29,5.25-12.09C347.8,241.94,347.81,210.96,347.81,179.98z"/>
		<path class="st4" d="M250.95,310.18c-3.38-7.05-6.92-14.03-10.03-21.19c-1.56-3.59-3.66-4.85-7.59-4.77
			c-18.63,0.37-37.27,0.47-55.9,0.59c-12.96,0.08-17.51-4.47-17.53-17.3c-0.04-32.45-0.07-64.9-0.11-97.35
			c-2.72,2.5-2.92,5.77-2.91,9.16c0.02,31.3-0.01,62.61,0.02,93.91c0.01,10.15,4.81,14.91,14.97,14.94
			c15.65,0.04,31.31-0.14,46.96,0.05c18.46,0.23,12.82-2.93,22.57,12.93c3.59,5.85,7.05,11.78,10.93,18.28
			c1.16-2.35,1.89-3.82,2.61-5.28C252.46,313.97,251.8,311.96,250.95,310.18z"/>
		<path class="st5" d="M272.64,287.98c20.79,0.05,41.58,0.14,62.36,0.13c2.84,0,5.61-0.68,7.56-3.1
			c-21.69-0.05-43.38-0.08-65.07-0.19C275.03,284.81,273.28,285.43,272.64,287.98z"/>
	</g>
</g>
</svg>
