<?xml version="1.0" encoding="utf-8"?>
<!-- Generator: Adobe Illustrator 24.1.3, SVG Export Plug-In . SVG Version: 6.00 Build 0)  -->
<svg version="1.1" id="Camada_1" xmlns="http://www.w3.org/2000/svg" xmlns:xlink="http://www.w3.org/1999/xlink" x="0px" y="0px"
	 viewBox="0 0 553 444" style="enable-background:new 0 0 553 444;" xml:space="preserve">
<style type="text/css">
	.st0{fill:#FCD45E;}
	.st1{fill:#FFFFFF;}
	.st2{fill:none;}
	.st3{fill:#353534;}
	.st4{fill:#373737;}
	.st5{fill:#3A3A3A;}
	.st6{fill:#383838;}
</style>
<g>
	<path id="yellowBalloon" class="st0" d="M323.98,0.08c12.66,0,25.32,0,37.99,0c0.78,1.19,2.04,0.89,3.16,1
		c18.32,1.72,36.19,5.5,53.34,12.21c41.27,16.13,72.22,44.65,95.68,81.53c28.8,45.27,40.98,94.92,36.87,148.48
		c-2.23,29.09-10.16,56.58-23.72,82.4c-19.49,37.12-48.22,65.42-83.8,87.08c-23.4,14.24-48.23,24.71-75.52,28.79
		c-5.01,0.75-10.2,0.37-15.01,2.36c-4,0-8,0-12,0c-0.92-1.39-2.38-0.94-3.64-0.99c-11.17-0.51-22.17-2.24-33.05-4.72
		c-26.98-6.16-52.19-17.03-76.64-29.62c-33.15-17.07-66.04-34.64-98.96-52.15c-23.42-12.46-45.79-26.52-66.04-43.82
		c-31.05-26.52-52.07-58.88-59.15-99.64c-1.21-6.98-1.06-14.17-3.38-20.96c0-16.33,0-32.65,0-48.98c1.8-4.39,1.37-9.11,1.91-13.67
		c2.77-23.42,12.73-41.92,34.17-53.58c13.84-7.52,28.45-12.95,43.34-17.66c40.27-12.73,81.22-23.08,121.95-34.2
		c33.38-9.11,66.99-17.07,101.42-21.25C309.93,1.82,317.11,2.15,323.98,0.08z M293.21,347.77c75.9-0.29,137.31-61.98,136.92-137.52
		c-0.4-75.71-61.58-137.4-137.07-136.86c-78.2,0.56-137.15,62.64-137.16,137.27C155.89,286.45,217.74,348.07,293.21,347.77z"/>
	<g id="clock">
		<ellipse class="st1" cx="292.49" cy="209.13" rx="119.27" ry="119.23"/>
		<path class="st2" d="M292.04,89.91c-65.73,0.44-119.18,54.22-118.95,119.69c0.23,65.41,54.13,118.94,119.08,118.77
			c66.28-0.18,118.73-52.17,119.58-119.41C411.38,143.01,357.54,89.47,292.04,89.91z M191.83,217.79c-4.57-0.23-8.36-4.28-8.29-8.84
			c0.07-4.81,4.27-8.82,9.02-8.6c4.53,0.21,8.46,4.36,8.36,8.83C200.81,213.86,196.42,218.03,191.83,217.79z M292.45,99.12
			c4.56-0.03,8.6,3.95,8.7,8.55c0.1,4.74-3.59,8.64-8.32,8.83c-4.73,0.18-8.72-3.48-8.92-8.18
			C283.71,103.42,287.68,99.15,292.45,99.12z M292.42,319.13c-4.75-0.04-8.56-3.84-8.56-8.54c0-4.89,4.12-8.87,8.99-8.67
			c4.72,0.19,8.37,4.09,8.27,8.85C301.03,315.51,297.23,319.17,292.42,319.13z M348.89,217.81c-18.13,0.08-36.26,0.09-54.4,0
			c-6.51-0.03-10.59-4.41-10.6-11.05c-0.02-12.14-0.01-24.29-0.01-36.43c0-12.31,0.12-24.62-0.06-36.93
			c-0.07-4.96,2.32-6.37,6.76-6.27c5.66,0.13,7.16,1.22,7.17,6.41c0.05,21.79,0.12,43.58-0.06,65.37c-0.03,3.84,0.87,5.06,4.9,5
			c15.47-0.25,30.94-0.12,46.41-0.09c5.6,0.01,7.73,1.86,7.8,6.64C356.89,215.42,354.53,217.79,348.89,217.81z M393.78,217.83
			c-4.43-0.03-8.57-4.11-8.67-8.55c-0.11-4.71,4.07-8.98,8.75-8.94c4.6,0.04,8.5,3.91,8.6,8.53
			C402.55,213.64,398.46,217.87,393.78,217.83z"/>
		<path class="st3" d="M293.06,73.39c-78.2,0.56-137.15,62.64-137.16,137.27c-0.01,75.79,61.83,137.4,137.31,137.11
			c75.9-0.29,137.31-61.98,136.92-137.52C429.74,134.54,368.55,72.85,293.06,73.39z M292.17,328.36
			c-64.95,0.17-118.85-53.36-119.08-118.77c-0.23-65.47,53.22-119.25,118.95-119.69c65.51-0.43,119.34,53.1,119.72,119.04
			C410.91,276.19,358.45,328.18,292.17,328.36z"/>
		<path class="st4" d="M349.01,203.83c-15.47-0.02-30.94-0.16-46.41,0.09c-4.03,0.06-4.93-1.16-4.9-5
			c0.18-21.79,0.11-43.58,0.06-65.37c-0.01-5.19-1.52-6.28-7.17-6.41c-4.44-0.1-6.84,1.3-6.76,6.27
			c0.19,12.31,0.06,24.62,0.06,36.93c0,12.14-0.01,24.29,0.01,36.43c0.01,6.64,4.09,11.02,10.6,11.05c18.13,0.08,36.26,0.08,54.4,0
			c5.63-0.03,8-2.39,7.92-7.34C356.74,205.7,354.62,203.84,349.01,203.83z"/>
		<path class="st5" d="M393.86,200.35c-4.68-0.04-8.85,4.23-8.75,8.94c0.1,4.44,4.23,8.52,8.67,8.55c4.68,0.03,8.77-4.19,8.67-8.96
			C402.36,204.26,398.46,200.39,393.86,200.35z"/>
		<path class="st5" d="M192.56,200.35c-4.74-0.22-8.95,3.79-9.02,8.6c-0.07,4.57,3.72,8.61,8.29,8.84c4.59,0.24,8.99-3.93,9.09-8.61
			C201.02,204.71,197.09,200.56,192.56,200.35z"/>
		<path class="st6" d="M292.82,116.5c4.74-0.18,8.42-4.09,8.32-8.83c-0.1-4.6-4.14-8.58-8.7-8.55c-4.77,0.03-8.74,4.3-8.54,9.2
			C284.1,113.02,288.09,116.68,292.82,116.5z"/>
		<path class="st6" d="M292.85,301.92c-4.87-0.2-9,3.78-8.99,8.67c0,4.7,3.81,8.49,8.56,8.54c4.81,0.04,8.62-3.61,8.71-8.36
			C301.22,306.01,297.58,302.11,292.85,301.92z"/>
	</g>
</g>
</svg>
